<mxfile host="Electron" modified="2023-10-18T12:02:28.196Z" agent="Mozilla/5.0 (X11; Linux x86_64) AppleWebKit/537.36 (KHTML, like Gecko) draw.io/21.3.7 Chrome/112.0.5615.204 Electron/24.5.0 Safari/537.36" etag="eq0UcVmFGHMtNIIUlI2r" version="21.3.7" type="device">
  <diagram id="C5RBs43oDa-KdzZeNtuy" name="Page-1">
    <mxGraphModel dx="1941" dy="834" grid="1" gridSize="10" guides="1" tooltips="1" connect="1" arrows="1" fold="1" page="1" pageScale="1" pageWidth="827" pageHeight="1169" math="0" shadow="0">
      <root>
        <mxCell id="WIyWlLk6GJQsqaUBKTNV-0" />
        <mxCell id="WIyWlLk6GJQsqaUBKTNV-1" parent="WIyWlLk6GJQsqaUBKTNV-0" />
        <mxCell id="HLxQs30fYMPfM-cLnMBt-5" style="edgeStyle=orthogonalEdgeStyle;rounded=0;orthogonalLoop=1;jettySize=auto;html=1;exitX=1;exitY=0;exitDx=0;exitDy=0;entryX=0;entryY=0.75;entryDx=0;entryDy=0;" edge="1" parent="WIyWlLk6GJQsqaUBKTNV-1" source="HLxQs30fYMPfM-cLnMBt-0" target="HLxQs30fYMPfM-cLnMBt-3">
          <mxGeometry relative="1" as="geometry" />
        </mxCell>
        <mxCell id="HLxQs30fYMPfM-cLnMBt-0" value="Само приложение" style="rounded=0;whiteSpace=wrap;html=1;" vertex="1" parent="WIyWlLk6GJQsqaUBKTNV-1">
          <mxGeometry x="-270" y="150" width="120" height="60" as="geometry" />
        </mxCell>
        <mxCell id="HLxQs30fYMPfM-cLnMBt-6" style="edgeStyle=orthogonalEdgeStyle;rounded=0;orthogonalLoop=1;jettySize=auto;html=1;exitX=0.5;exitY=0;exitDx=0;exitDy=0;" edge="1" parent="WIyWlLk6GJQsqaUBKTNV-1" source="HLxQs30fYMPfM-cLnMBt-1" target="HLxQs30fYMPfM-cLnMBt-3">
          <mxGeometry relative="1" as="geometry" />
        </mxCell>
        <mxCell id="HLxQs30fYMPfM-cLnMBt-1" value="Игра1" style="rounded=0;whiteSpace=wrap;html=1;" vertex="1" parent="WIyWlLk6GJQsqaUBKTNV-1">
          <mxGeometry x="330" y="100" width="120" height="60" as="geometry" />
        </mxCell>
        <mxCell id="HLxQs30fYMPfM-cLnMBt-3" value="Итоговое приложение с играми" style="rounded=0;whiteSpace=wrap;html=1;" vertex="1" parent="WIyWlLk6GJQsqaUBKTNV-1">
          <mxGeometry x="330" y="10" width="120" height="60" as="geometry" />
        </mxCell>
        <mxCell id="HLxQs30fYMPfM-cLnMBt-10" value="Графика" style="rounded=0;whiteSpace=wrap;html=1;" vertex="1" parent="WIyWlLk6GJQsqaUBKTNV-1">
          <mxGeometry x="620" y="150" width="120" height="60" as="geometry" />
        </mxCell>
        <mxCell id="HLxQs30fYMPfM-cLnMBt-11" value="Код" style="rounded=0;whiteSpace=wrap;html=1;" vertex="1" parent="WIyWlLk6GJQsqaUBKTNV-1">
          <mxGeometry x="270" y="290" width="120" height="60" as="geometry" />
        </mxCell>
        <mxCell id="HLxQs30fYMPfM-cLnMBt-12" value="Локация" style="rounded=0;whiteSpace=wrap;html=1;" vertex="1" parent="WIyWlLk6GJQsqaUBKTNV-1">
          <mxGeometry x="740" y="240" width="120" height="60" as="geometry" />
        </mxCell>
        <mxCell id="HLxQs30fYMPfM-cLnMBt-13" value="Персонажи" style="rounded=0;whiteSpace=wrap;html=1;" vertex="1" parent="WIyWlLk6GJQsqaUBKTNV-1">
          <mxGeometry x="1040" y="240" width="120" height="60" as="geometry" />
        </mxCell>
        <mxCell id="HLxQs30fYMPfM-cLnMBt-14" value="Движение" style="rounded=0;whiteSpace=wrap;html=1;" vertex="1" parent="WIyWlLk6GJQsqaUBKTNV-1">
          <mxGeometry x="210" y="410" width="120" height="60" as="geometry" />
        </mxCell>
        <mxCell id="HLxQs30fYMPfM-cLnMBt-15" value="Движение игрока" style="rounded=0;whiteSpace=wrap;html=1;" vertex="1" parent="WIyWlLk6GJQsqaUBKTNV-1">
          <mxGeometry x="80" y="550" width="120" height="60" as="geometry" />
        </mxCell>
        <mxCell id="HLxQs30fYMPfM-cLnMBt-16" value="Движение NPC" style="rounded=0;whiteSpace=wrap;html=1;" vertex="1" parent="WIyWlLk6GJQsqaUBKTNV-1">
          <mxGeometry x="230" y="555" width="120" height="60" as="geometry" />
        </mxCell>
        <mxCell id="HLxQs30fYMPfM-cLnMBt-17" value="Триггеры" style="whiteSpace=wrap;html=1;aspect=fixed;" vertex="1" parent="WIyWlLk6GJQsqaUBKTNV-1">
          <mxGeometry x="480" y="530" width="80" height="80" as="geometry" />
        </mxCell>
        <mxCell id="HLxQs30fYMPfM-cLnMBt-19" value="" style="endArrow=classic;html=1;rounded=0;entryX=0.25;entryY=1;entryDx=0;entryDy=0;" edge="1" parent="WIyWlLk6GJQsqaUBKTNV-1" target="HLxQs30fYMPfM-cLnMBt-14">
          <mxGeometry width="50" height="50" relative="1" as="geometry">
            <mxPoint x="190" y="555" as="sourcePoint" />
            <mxPoint x="240" y="505" as="targetPoint" />
          </mxGeometry>
        </mxCell>
        <mxCell id="HLxQs30fYMPfM-cLnMBt-20" value="" style="endArrow=classic;html=1;rounded=0;entryX=0.867;entryY=0.983;entryDx=0;entryDy=0;entryPerimeter=0;exitX=0.558;exitY=0.017;exitDx=0;exitDy=0;exitPerimeter=0;" edge="1" parent="WIyWlLk6GJQsqaUBKTNV-1" source="HLxQs30fYMPfM-cLnMBt-16" target="HLxQs30fYMPfM-cLnMBt-14">
          <mxGeometry width="50" height="50" relative="1" as="geometry">
            <mxPoint x="390" y="550" as="sourcePoint" />
            <mxPoint x="340" y="480" as="targetPoint" />
          </mxGeometry>
        </mxCell>
        <mxCell id="HLxQs30fYMPfM-cLnMBt-22" value="" style="endArrow=classic;html=1;rounded=0;entryX=0;entryY=1;entryDx=0;entryDy=0;" edge="1" parent="WIyWlLk6GJQsqaUBKTNV-1" target="HLxQs30fYMPfM-cLnMBt-11">
          <mxGeometry width="50" height="50" relative="1" as="geometry">
            <mxPoint x="280" y="410" as="sourcePoint" />
            <mxPoint x="330" y="360" as="targetPoint" />
          </mxGeometry>
        </mxCell>
        <mxCell id="HLxQs30fYMPfM-cLnMBt-26" value="Взаимодесйтствие" style="rounded=0;whiteSpace=wrap;html=1;" vertex="1" parent="WIyWlLk6GJQsqaUBKTNV-1">
          <mxGeometry x="370" y="410" width="120" height="60" as="geometry" />
        </mxCell>
        <mxCell id="HLxQs30fYMPfM-cLnMBt-28" value="" style="endArrow=classic;html=1;rounded=0;" edge="1" parent="WIyWlLk6GJQsqaUBKTNV-1" target="HLxQs30fYMPfM-cLnMBt-11">
          <mxGeometry width="50" height="50" relative="1" as="geometry">
            <mxPoint x="420" y="410" as="sourcePoint" />
            <mxPoint x="470" y="360" as="targetPoint" />
          </mxGeometry>
        </mxCell>
        <mxCell id="HLxQs30fYMPfM-cLnMBt-29" value="Нанесение урона" style="whiteSpace=wrap;html=1;aspect=fixed;" vertex="1" parent="WIyWlLk6GJQsqaUBKTNV-1">
          <mxGeometry x="390" y="530" width="80" height="80" as="geometry" />
        </mxCell>
        <mxCell id="HLxQs30fYMPfM-cLnMBt-30" value="Получение урона" style="whiteSpace=wrap;html=1;aspect=fixed;" vertex="1" parent="WIyWlLk6GJQsqaUBKTNV-1">
          <mxGeometry x="570" y="505" width="80" height="80" as="geometry" />
        </mxCell>
        <mxCell id="HLxQs30fYMPfM-cLnMBt-31" value="" style="endArrow=classic;html=1;rounded=0;entryX=0.625;entryY=0.967;entryDx=0;entryDy=0;entryPerimeter=0;exitX=0.6;exitY=0.025;exitDx=0;exitDy=0;exitPerimeter=0;" edge="1" parent="WIyWlLk6GJQsqaUBKTNV-1" source="HLxQs30fYMPfM-cLnMBt-29" target="HLxQs30fYMPfM-cLnMBt-26">
          <mxGeometry width="50" height="50" relative="1" as="geometry">
            <mxPoint x="490" y="505" as="sourcePoint" />
            <mxPoint x="540" y="455" as="targetPoint" />
          </mxGeometry>
        </mxCell>
        <mxCell id="HLxQs30fYMPfM-cLnMBt-32" value="" style="endArrow=classic;html=1;rounded=0;entryX=1;entryY=0.5;entryDx=0;entryDy=0;" edge="1" parent="WIyWlLk6GJQsqaUBKTNV-1" target="HLxQs30fYMPfM-cLnMBt-26">
          <mxGeometry width="50" height="50" relative="1" as="geometry">
            <mxPoint x="580" y="510" as="sourcePoint" />
            <mxPoint x="630" y="460" as="targetPoint" />
          </mxGeometry>
        </mxCell>
        <mxCell id="HLxQs30fYMPfM-cLnMBt-33" value="" style="endArrow=classic;html=1;rounded=0;entryX=0.858;entryY=0.967;entryDx=0;entryDy=0;entryPerimeter=0;" edge="1" parent="WIyWlLk6GJQsqaUBKTNV-1" target="HLxQs30fYMPfM-cLnMBt-26">
          <mxGeometry width="50" height="50" relative="1" as="geometry">
            <mxPoint x="510" y="530" as="sourcePoint" />
            <mxPoint x="560" y="480" as="targetPoint" />
          </mxGeometry>
        </mxCell>
        <mxCell id="HLxQs30fYMPfM-cLnMBt-34" value="" style="endArrow=classic;html=1;rounded=0;" edge="1" parent="WIyWlLk6GJQsqaUBKTNV-1" target="HLxQs30fYMPfM-cLnMBt-1">
          <mxGeometry width="50" height="50" relative="1" as="geometry">
            <mxPoint x="340" y="290" as="sourcePoint" />
            <mxPoint x="390" y="240" as="targetPoint" />
          </mxGeometry>
        </mxCell>
        <mxCell id="HLxQs30fYMPfM-cLnMBt-35" value="" style="endArrow=classic;html=1;rounded=0;entryX=0.5;entryY=1;entryDx=0;entryDy=0;exitX=0.608;exitY=0.05;exitDx=0;exitDy=0;exitPerimeter=0;" edge="1" parent="WIyWlLk6GJQsqaUBKTNV-1" source="HLxQs30fYMPfM-cLnMBt-12" target="HLxQs30fYMPfM-cLnMBt-10">
          <mxGeometry width="50" height="50" relative="1" as="geometry">
            <mxPoint x="570" y="340" as="sourcePoint" />
            <mxPoint x="620" y="290" as="targetPoint" />
          </mxGeometry>
        </mxCell>
        <mxCell id="HLxQs30fYMPfM-cLnMBt-36" value="" style="endArrow=classic;html=1;rounded=0;entryX=1;entryY=0.75;entryDx=0;entryDy=0;exitX=0.25;exitY=0;exitDx=0;exitDy=0;" edge="1" parent="WIyWlLk6GJQsqaUBKTNV-1" source="HLxQs30fYMPfM-cLnMBt-10" target="HLxQs30fYMPfM-cLnMBt-1">
          <mxGeometry width="50" height="50" relative="1" as="geometry">
            <mxPoint x="500" y="210" as="sourcePoint" />
            <mxPoint x="550" y="160" as="targetPoint" />
          </mxGeometry>
        </mxCell>
        <mxCell id="HLxQs30fYMPfM-cLnMBt-38" value="" style="endArrow=classic;html=1;rounded=0;entryX=1;entryY=0.75;entryDx=0;entryDy=0;exitX=0.25;exitY=0;exitDx=0;exitDy=0;" edge="1" parent="WIyWlLk6GJQsqaUBKTNV-1" source="HLxQs30fYMPfM-cLnMBt-13" target="HLxQs30fYMPfM-cLnMBt-10">
          <mxGeometry width="50" height="50" relative="1" as="geometry">
            <mxPoint x="750" y="260" as="sourcePoint" />
            <mxPoint x="800" y="210" as="targetPoint" />
          </mxGeometry>
        </mxCell>
        <mxCell id="HLxQs30fYMPfM-cLnMBt-39" value="Модельки" style="rounded=0;whiteSpace=wrap;html=1;" vertex="1" parent="WIyWlLk6GJQsqaUBKTNV-1">
          <mxGeometry x="660" y="350" width="120" height="60" as="geometry" />
        </mxCell>
        <mxCell id="HLxQs30fYMPfM-cLnMBt-41" value="Анимации" style="rounded=0;whiteSpace=wrap;html=1;" vertex="1" parent="WIyWlLk6GJQsqaUBKTNV-1">
          <mxGeometry x="880" y="350" width="120" height="60" as="geometry" />
        </mxCell>
        <mxCell id="HLxQs30fYMPfM-cLnMBt-42" value="Модельки&amp;nbsp;" style="rounded=0;whiteSpace=wrap;html=1;" vertex="1" parent="WIyWlLk6GJQsqaUBKTNV-1">
          <mxGeometry x="1121" y="350" width="120" height="60" as="geometry" />
        </mxCell>
        <mxCell id="HLxQs30fYMPfM-cLnMBt-43" value="Анимации" style="rounded=0;whiteSpace=wrap;html=1;" vertex="1" parent="WIyWlLk6GJQsqaUBKTNV-1">
          <mxGeometry x="1330" y="350" width="120" height="60" as="geometry" />
        </mxCell>
        <mxCell id="HLxQs30fYMPfM-cLnMBt-44" value="" style="endArrow=classic;html=1;rounded=0;entryX=0.333;entryY=1.017;entryDx=0;entryDy=0;entryPerimeter=0;exitX=0.333;exitY=0.017;exitDx=0;exitDy=0;exitPerimeter=0;" edge="1" parent="WIyWlLk6GJQsqaUBKTNV-1" source="HLxQs30fYMPfM-cLnMBt-39" target="HLxQs30fYMPfM-cLnMBt-12">
          <mxGeometry width="50" height="50" relative="1" as="geometry">
            <mxPoint x="720" y="350" as="sourcePoint" />
            <mxPoint x="770" y="300" as="targetPoint" />
          </mxGeometry>
        </mxCell>
        <mxCell id="HLxQs30fYMPfM-cLnMBt-45" value="" style="endArrow=classic;html=1;rounded=0;entryX=0.658;entryY=1.033;entryDx=0;entryDy=0;entryPerimeter=0;exitX=0.25;exitY=0;exitDx=0;exitDy=0;" edge="1" parent="WIyWlLk6GJQsqaUBKTNV-1" source="HLxQs30fYMPfM-cLnMBt-41" target="HLxQs30fYMPfM-cLnMBt-12">
          <mxGeometry width="50" height="50" relative="1" as="geometry">
            <mxPoint x="870" y="350" as="sourcePoint" />
            <mxPoint x="920" y="300" as="targetPoint" />
          </mxGeometry>
        </mxCell>
        <mxCell id="HLxQs30fYMPfM-cLnMBt-46" value="" style="endArrow=classic;html=1;rounded=0;entryX=0.5;entryY=1;entryDx=0;entryDy=0;exitX=0.5;exitY=0;exitDx=0;exitDy=0;" edge="1" parent="WIyWlLk6GJQsqaUBKTNV-1" source="HLxQs30fYMPfM-cLnMBt-42" target="HLxQs30fYMPfM-cLnMBt-13">
          <mxGeometry width="50" height="50" relative="1" as="geometry">
            <mxPoint x="1190" y="340" as="sourcePoint" />
            <mxPoint x="1240" y="290" as="targetPoint" />
          </mxGeometry>
        </mxCell>
        <mxCell id="HLxQs30fYMPfM-cLnMBt-47" value="" style="endArrow=classic;html=1;rounded=0;entryX=1;entryY=0.5;entryDx=0;entryDy=0;exitX=0.317;exitY=-0.083;exitDx=0;exitDy=0;exitPerimeter=0;" edge="1" parent="WIyWlLk6GJQsqaUBKTNV-1" source="HLxQs30fYMPfM-cLnMBt-43" target="HLxQs30fYMPfM-cLnMBt-13">
          <mxGeometry width="50" height="50" relative="1" as="geometry">
            <mxPoint x="1320" y="320" as="sourcePoint" />
            <mxPoint x="1370" y="270" as="targetPoint" />
          </mxGeometry>
        </mxCell>
        <mxCell id="HLxQs30fYMPfM-cLnMBt-48" value="Код" style="rounded=0;whiteSpace=wrap;html=1;" vertex="1" parent="WIyWlLk6GJQsqaUBKTNV-1">
          <mxGeometry x="-440" y="300" width="120" height="60" as="geometry" />
        </mxCell>
        <mxCell id="HLxQs30fYMPfM-cLnMBt-49" value="Графика&lt;br&gt;" style="rounded=0;whiteSpace=wrap;html=1;" vertex="1" parent="WIyWlLk6GJQsqaUBKTNV-1">
          <mxGeometry x="-120" y="300" width="120" height="60" as="geometry" />
        </mxCell>
        <mxCell id="HLxQs30fYMPfM-cLnMBt-50" value="" style="endArrow=classic;html=1;rounded=0;exitX=0.5;exitY=0;exitDx=0;exitDy=0;entryX=0;entryY=1;entryDx=0;entryDy=0;" edge="1" parent="WIyWlLk6GJQsqaUBKTNV-1" source="HLxQs30fYMPfM-cLnMBt-48" target="HLxQs30fYMPfM-cLnMBt-0">
          <mxGeometry width="50" height="50" relative="1" as="geometry">
            <mxPoint x="-120" y="380" as="sourcePoint" />
            <mxPoint x="-70" y="330" as="targetPoint" />
            <Array as="points">
              <mxPoint x="-270" y="210" />
            </Array>
          </mxGeometry>
        </mxCell>
        <mxCell id="HLxQs30fYMPfM-cLnMBt-51" value="" style="endArrow=classic;html=1;rounded=0;entryX=1;entryY=1;entryDx=0;entryDy=0;exitX=0.5;exitY=0;exitDx=0;exitDy=0;" edge="1" parent="WIyWlLk6GJQsqaUBKTNV-1" source="HLxQs30fYMPfM-cLnMBt-49" target="HLxQs30fYMPfM-cLnMBt-0">
          <mxGeometry width="50" height="50" relative="1" as="geometry">
            <mxPoint x="-80" y="290" as="sourcePoint" />
            <mxPoint x="-30" y="240" as="targetPoint" />
          </mxGeometry>
        </mxCell>
        <mxCell id="HLxQs30fYMPfM-cLnMBt-60" style="edgeStyle=orthogonalEdgeStyle;rounded=0;orthogonalLoop=1;jettySize=auto;html=1;exitX=0.5;exitY=0;exitDx=0;exitDy=0;entryX=0;entryY=1;entryDx=0;entryDy=0;" edge="1" parent="WIyWlLk6GJQsqaUBKTNV-1" source="HLxQs30fYMPfM-cLnMBt-54" target="HLxQs30fYMPfM-cLnMBt-48">
          <mxGeometry relative="1" as="geometry" />
        </mxCell>
        <mxCell id="HLxQs30fYMPfM-cLnMBt-54" value="Взаимодейсвие с библиотекой" style="rounded=0;whiteSpace=wrap;html=1;" vertex="1" parent="WIyWlLk6GJQsqaUBKTNV-1">
          <mxGeometry x="-560" y="400" width="120" height="60" as="geometry" />
        </mxCell>
        <mxCell id="HLxQs30fYMPfM-cLnMBt-55" value="Взаимодействие с настройками&lt;br&gt;" style="rounded=0;whiteSpace=wrap;html=1;" vertex="1" parent="WIyWlLk6GJQsqaUBKTNV-1">
          <mxGeometry x="-320" y="400" width="120" height="60" as="geometry" />
        </mxCell>
        <mxCell id="HLxQs30fYMPfM-cLnMBt-62" value="" style="endArrow=classic;html=1;rounded=0;entryX=1;entryY=1;entryDx=0;entryDy=0;" edge="1" parent="WIyWlLk6GJQsqaUBKTNV-1" target="HLxQs30fYMPfM-cLnMBt-48">
          <mxGeometry width="50" height="50" relative="1" as="geometry">
            <mxPoint x="-280" y="400" as="sourcePoint" />
            <mxPoint x="-230" y="350" as="targetPoint" />
          </mxGeometry>
        </mxCell>
        <mxCell id="HLxQs30fYMPfM-cLnMBt-63" value="Дизайн лаунчера&lt;br&gt;" style="rounded=0;whiteSpace=wrap;html=1;rotation=0;" vertex="1" parent="WIyWlLk6GJQsqaUBKTNV-1">
          <mxGeometry x="-120" y="400" width="120" height="60" as="geometry" />
        </mxCell>
        <mxCell id="HLxQs30fYMPfM-cLnMBt-64" value="" style="endArrow=classic;html=1;rounded=0;exitX=0.5;exitY=0;exitDx=0;exitDy=0;entryX=0.5;entryY=1;entryDx=0;entryDy=0;" edge="1" parent="WIyWlLk6GJQsqaUBKTNV-1" source="HLxQs30fYMPfM-cLnMBt-63" target="HLxQs30fYMPfM-cLnMBt-49">
          <mxGeometry width="50" height="50" relative="1" as="geometry">
            <mxPoint x="-120" y="380" as="sourcePoint" />
            <mxPoint x="-70" y="330" as="targetPoint" />
          </mxGeometry>
        </mxCell>
      </root>
    </mxGraphModel>
  </diagram>
</mxfile>
